<?xml version="1.0" encoding="utf-8"?>
<!-- Generator: Adobe Illustrator 19.0.0, SVG Export Plug-In . SVG Version: 6.00 Build 0)  -->
<svg version="1.1" id="Layer_1" xmlns="http://www.w3.org/2000/svg" xmlns:xlink="http://www.w3.org/1999/xlink" x="0px" y="0px"
	 viewBox="1014 1462.7 179.9 245.8" style="enable-background:new 1014 1462.7 179.9 245.8;" xml:space="preserve">
<style type="text/css">
	.st0{enable-background:new    ;}
	.st1{fill:#FFFFFF;}
	.st2{fill:#FBEB36;}
	.st3{fill:#231F20;}
</style>
<rect id="XMLID_6_" x="-425" y="378.5" width="72.8" height="71.7"/>
<g id="XMLID_4_">
	
		<text id="XMLID_2_" transform="matrix(1 0 0 1 -420.058 427.7934)" class="st1" style="font-family:'ShreeDev0714'; font-size:33.8797px;">48</text>
	
		<text id="XMLID_5_" transform="matrix(1 0 0 1 -416.9999 427.7934)" class="st1" style="font-family:'ShreeDev0714'; font-size:33.8797px;">48</text>
</g>
<text id="XMLID_1_" transform="matrix(0.6949 0 0 1 -378.708 413.1091)" class="st1" style="font-family:'KhmerMN'; font-size:17.9201px;">hrs</text>
<g id="XMLID_7_">
	<g id="XMLID_17_">
		
			<text id="XMLID_18_" transform="matrix(1 0 0 1 -270.9999 425.0436)" class="st1" style="font-family:'OriyaSangamMN-Bold'; font-size:33.8797px;">48</text>
	</g>
	
		<text id="XMLID_10_" transform="matrix(0.6949 0 0 1 -238.9581 416.1091)" class="st1" style="font-family:'KhmerMN'; font-size:17.9201px;">hrs</text>
</g>
<rect id="XMLID_13_" x="-425.5" y="522.9" width="72.8" height="71.7"/>
<text id="XMLID_16_" transform="matrix(0.6949 0 0 1 -392.4766 583.5447)" class="st1" style="font-family:'KhmerMN'; font-size:28.746px;">r</text>
<text id="XMLID_8_" transform="matrix(0.6949 0 0 1 -401.3682 552.5867)" class="st1" style="font-family:'KhmerMN'; font-size:28.746px;">4</text>
<text id="XMLID_11_" transform="matrix(0.6949 0 0 1 -385.8491 552.5867)" class="st1" style="font-family:'KhmerMN'; font-size:28.746px;">8</text>
<text id="XMLID_12_" transform="matrix(0.6949 0 0 1 -411.2252 571.8499)" class="st1" style="font-family:'KhmerMN'; font-size:28.746px;">h</text>
<text id="XMLID_15_" transform="matrix(0.6949 0 0 1 -375.293 571.8499)" class="st1" style="font-family:'KhmerMN'; font-size:28.746px;">s</text>
<rect id="XMLID_27_" x="-279.5" y="522.9" width="72.8" height="71.7"/>
<text id="XMLID_25_" transform="matrix(0.6949 0 0 1 -246.4767 583.5447)" class="st1" style="font-family:'PingFangTC-Light-B5pc-H'; font-size:28.746px;">r</text>
<text id="XMLID_24_" transform="matrix(0.6949 0 0 1 -255.3681 552.5867)" class="st1" style="font-family:'PingFangTC-Light-B5pc-H'; font-size:28.746px;">4</text>
<text id="XMLID_23_" transform="matrix(0.6949 0 0 1 -239.8492 552.5867)" class="st1" style="font-family:'PingFangTC-Light-B5pc-H'; font-size:28.746px;">8</text>
<text id="XMLID_22_" transform="matrix(0.6949 0 0 1 -265.2251 571.8499)" class="st1" style="font-family:'PingFangTC-Light-B5pc-H'; font-size:28.746px;">h</text>
<text id="XMLID_21_" transform="matrix(0.6949 0 0 1 -229.2929 571.8499)" class="st1" style="font-family:'PingFangTC-Light-B5pc-H'; font-size:28.746px;">s</text>
<rect x="-132" y="331.1" class="st2" width="284" height="285"/>
<text transform="matrix(1 0 0 1 -82.8069 522.8897)" class="st3" style="font-family:'Breathe-Press'; font-size:243.534px; letter-spacing:6;">48</text>
<text transform="matrix(1 0 0 1 -76.761 596.8826)" class="st3" style="font-family:'Avenir-Heavy'; font-size:85.8823px; letter-spacing:2;">hrs</text>
<rect x="266" y="331.1" class="st2" width="284" height="285"/>
<text transform="matrix(1 0 0 1 315.1931 522.8897)" class="st3" style="font-family:'Breathe-Press'; font-size:243.534px; letter-spacing:6;">48</text>
<text transform="matrix(1 0 0 1 321.239 596.8826)" class="st3" style="font-family:'Avenir-Light'; font-size:85.8823px; letter-spacing:2;">hrs</text>
<rect x="-132" y="713.1" class="st2" width="284" height="285"/>
<text transform="matrix(1 0 0 1 -82.8069 904.8898)" class="st3" style="font-family:'Breathe-Regular'; font-size:243.534px; letter-spacing:6;">48</text>
<text transform="matrix(1 0 0 1 -76.761 978.8826)" class="st3" style="font-family:'Avenir-Heavy'; font-size:85.8823px; letter-spacing:2;">hrs</text>
<rect x="266" y="713.1" class="st2" width="284" height="285"/>
<text transform="matrix(1 0 0 1 315.1931 904.8898)" class="st3" style="font-family:'Breathe-Regular'; font-size:243.534px; letter-spacing:6;">48</text>
<text transform="matrix(1 0 0 1 321.239 978.8826)" class="st3" style="font-family:'Avenir-Light'; font-size:85.8823px; letter-spacing:2;">hrs</text>
<rect x="-132" y="1064.6" class="st1" width="284" height="285"/>
<text transform="matrix(1 0 0 1 -82.8069 1256.4087)" class="st3" style="font-family:'Breathe-Regular'; font-size:243.534px; letter-spacing:6;">48</text>
<text transform="matrix(1 0 0 1 -76.761 1330.4016)" class="st3" style="font-family:'Avenir-Heavy'; font-size:85.8823px; letter-spacing:2;">hrs</text>
<rect x="266" y="1064.6" class="st1" width="284" height="285"/>
<text transform="matrix(1 0 0 1 315.1931 1256.4087)" class="st3" style="font-family:'Breathe-Regular'; font-size:243.534px; letter-spacing:6;">48</text>
<text transform="matrix(1 0 0 1 321.239 1330.4016)" class="st3" style="font-family:'Avenir-Light'; font-size:85.8823px; letter-spacing:2;">hrs</text>
<rect x="-132" y="1441.1" class="st3" width="284" height="285"/>
<text transform="matrix(1 0 0 1 -82.8069 1632.8899)" class="st1" style="font-family:'Breathe-Regular'; font-size:243.534px; letter-spacing:6;">48</text>
<text transform="matrix(1 0 0 1 -76.761 1706.8827)" class="st1" style="font-family:'Avenir-Heavy'; font-size:85.8823px; letter-spacing:2;">hrs</text>
<g>
	<g>
		<path class="st2" d="M1085.8,805.8v1.9c0.2,1.6,0.2,3,0.1,4.3c-0.1,1.2-0.1,2.2-0.1,3c-0.3,6.2-0.7,10.7-1.2,13.6
			c0,1-0.4,1.7-1.2,2.2c0,2.3-0.4,3.8-1.2,4.6c0,8,0.1,13,0.2,15.1c0.3,3.9,0.5,9.2,0.5,15.8l0.2,5.8c0.2,1.3,0.2,3.2,0.2,5.6
			c0,2.6-0.3,4.9-1,6.8c0.3,1.3,0.5,3,0.5,5.1c0,1.8-0.2,3-0.5,3.7c-0.2,0.3-0.2,0.9-0.2,1.7c0,1.1,0.2,2.6,0.7,4.4
			c0.6,0.7,1.1,1.1,1.2,1.5c0.2,0.7,0.1,1.1-0.2,1.5l-1.7,2.2c-2.4,0-5-0.5-7.8-1.5c-1.6-0.2-4.2-0.2-7.8-0.2c-3.4,0-6.1,0.1-8,0.2
			c-2.3,0-4.5-0.5-6.8-1.5c-1.6-0.5-2.5-1.2-2.7-2.2c-1.1-4.7-1.7-10.8-1.7-18.3c0-5.8,0.5-14.3,1.5-25.3l1.2-12.9
			c-0.2-0.3-0.2-1.1-0.2-2.4c0-2.1,0.2-3.9,0.5-5.4c0.2-0.8,0.4-1.8,0.9-2.9c0.4-1.1,0.6-2,0.6-2.7c0-0.8-0.2-1.7-0.7-2.7
			c0.6-1,1.3-2.6,1.9-4.9v-0.2c1.5-6.5,2.2-10,2.2-10.5v-0.2h-4.9h-2.7l-1.2,0.2c-1,0-2.4,0.2-4.4,0.5c-2.4,0.3-8.6,1.7-18.5,4.1
			c-0.3,0.2-1,0.2-1.9,0.2c-1.8,0-3.4-0.5-4.9-1.5c-2.1-1.3-2.9-2.8-2.4-4.4c4.1-14.9,6.1-29.4,6.1-43.3c0-2.3-0.2-5.7-0.5-10.2
			l-0.7-9c-0.3-2.6-0.5-4.7-0.5-6.3c0-1.3,0.1-2.3,0.2-2.9c0.5-1.8,1.9-2.7,4.1-2.7c1.3,0,2.5,0.3,3.7,0.9c1.1,0.6,1.9,1.3,2.4,2.1
			c1.5,2.1,2.4,5.4,2.7,9.7c0.6,4.4,1.1,7.4,1.2,9c0.2,2.9,0.2,7.5,0.2,13.6c0,9.3-1.1,20-3.4,32.1c2.9-0.3,5.4-0.5,7.3-0.5
			c0.5,0,0.9-0.1,1.2-0.2c5.2-0.6,9.3-1,12.2-1c2.1,0,3.7,0.1,4.6,0.2h0.2c1.9-4.1,2.8-8.9,2.7-14.6c0-4.9,0.7-9.3,2.2-13.2
			c0-1.6,0.2-4.2,0.5-7.8c0.3-6.8,0.6-11.9,1-15.3c0.3-3.2,0.6-5.8,1-7.8c0.3-3.4,0.8-5.8,1.5-7.3l1-1.2c1.3,1.3,2.8,1.9,4.6,1.9
			h4.4c0,0.2,0.2,0.4,0.5,0.7c0.5-0.5,1.1-0.9,1.9-1.2c0.2,0,0.2-0.1,0.2-0.2h0.5c0.8,0.5,1.9,0.7,3.4,0.7c0.5,0,1.7-0.2,3.7-0.5
			c0.6-0.2,1.5-0.2,2.7-0.2c1.5,0,2.6,0.4,3.4,1.2c0.8,1.6,1.2,4.1,1.2,7.5c0,6.3-1.3,21-3.9,44.1l-1.7,17H1085.8z M1063.4,897.1
			c-1,0-1.7-0.1-2.2-0.2c0,0.2,0.1,0.2,0.2,0.2H1063.4z"/>
		<path class="st2" d="M1193.4,876.3c-0.3,1.1-0.3,2.2,0,3.3c-6,14.1-16.5,22.2-31.4,24.1c-2.3,0.3-5.5,0.5-9.7,0.5
			c-11,0-21.2-2.4-30.4-7.1c-2.6-3.2-5-7.5-7.1-12.7c-2.3-5-3.8-9.9-4.6-14.6c-0.3-1.9-0.5-3.4-0.5-4.4c0-6.2,2.8-12.7,8.5-19.5
			c3.9-4.7,9.9-10.5,18-17.3c-0.8-1.5-2.3-3.1-4.4-4.9c-1.9-1.6-3.2-2.9-3.9-3.9c-0.5-0.5-1-1.3-1.5-2.3c-0.5-1.1-1-1.8-1.5-2.3
			c-0.5-0.6-1.4-1.6-2.8-2.9c-1.4-1.3-2.4-2.6-3-3.9c-7.8-15.6-11.7-28.5-11.7-38.7c0-1.9,0.3-4.5,1-7.8
			c2.6-11.2,8.1-18.8,16.6-22.6c4.9-2.3,10-3.4,15.3-3.4c3.9,0,8.2,0.7,12.9,1.9c10.2,2.6,18.3,8,24.4,16.3c0.2,0.3,0.2,0.7,0.2,1.1
			c0,0.4,0.2,0.8,0.5,1.1c0.2,0.8,0.6,1.7,1.3,2.8c0.7,1.1,1.3,1.8,1.6,2.3c0.5,2.1,0.7,5.1,0.7,9c0,0.3-0.2,0.7-0.7,1
			c0.2,0.7,0.2,1.6,0.2,2.9v0.2c0.3,5.8-0.2,11.4-1.7,16.8c-1.5,5-3.6,9.7-6.3,13.9c-0.3,1.6-0.7,2.7-1,3.2
			c-0.2,0.5-0.7,1.3-1.7,2.6c-1,1.2-1.5,2.1-1.7,2.6c-2.1,3.2-4.7,5.9-7.8,8c2.4,4.1,5.9,7.7,10.5,11c4.4,3.4,7.8,7.4,10.2,11.9
			c0.6,1.8,1.7,3.6,3,5.5c1.4,1.9,2.5,3.5,3.3,5c2.4,3.9,4.1,7.6,4.9,11.2v1.2l-0.2,3.2c0,1.3,0.3,2.4,1,3.2
			C1193.9,874.4,1193.7,875.2,1193.4,876.3z M1163.7,873.5c0-4.1-0.6-8.4-1.7-12.9c-1-1.3-2.5-3.2-4.5-5.6c-2-2.4-3.4-4.7-4-6.8
			c-0.2-0.2-0.3-0.6-0.5-1.3c-0.2-0.7-0.4-1.3-0.7-1.6c-0.3-0.5-0.9-1-1.7-1.6c-0.8-0.6-1.5-1.1-1.9-1.6l-0.2-1.5
			c-1-1.1-2.3-2.4-4-3.8c-1.7-1.4-2.7-2.3-3-2.8c-1.1,0.8-2.8,1.8-4.9,2.9c-2.3,0.8-4.1,1.8-5.4,2.9c-0.8,0.8-1.6,1.6-2.3,2.3
			s-1.4,1.4-2.1,2.1c-1.5,1.1-2.5,2.3-3.2,3.5c-0.7,1.2-1.3,2.6-1.9,4.3c-0.7,1.6-1.3,3.1-1.9,4.4c-1.3,3.1-1.9,6.2-1.9,9.3
			c0,3.2,0.8,7.3,2.4,12.2c1.9,4.9,4.1,8.2,6.6,10c6.5,4.5,12.5,6.8,18,6.8c3.9,0,7.4-1.1,10.5-3.2
			C1160.9,888.1,1163.7,882.1,1163.7,873.5z M1137.6,792.6c1,2.8,3.6,6.7,7.8,11.9c0.5,0.8,1.1,1.9,1.9,3.4c0.8,1.5,1.6,2.6,2.4,3.4
			c0.8,0.8,1.9,1.5,3.2,2.2c4.1-4.2,7.2-8.1,9.5-11.6c2.3-3.5,3.7-7.6,4.4-12.3l0.7-11.9c0-0.5,0.2-0.9,0.5-1.2
			c0.3-0.3,0.5-0.7,0.5-1.2c0-2.8-0.9-5.9-2.6-9.4c-1.7-3.5-3.7-6.7-6-9.6c-5.2-3.6-9.7-5.4-13.4-5.4c-3.6,0-6.2,1.8-7.8,5.4
			c-2.4,5.5-3.7,12.1-3.7,19.7c0,2.3,0.1,4.1,0.2,5.4C1135.5,786,1136.2,789.7,1137.6,792.6z"/>
	</g>
	<g>
		<path class="st2" d="M1022.1,918.1h10.8v24.2h28.4v-24.2h10.8v60.8h-10.8v-26.8H1033v26.8h-10.8V918.1z"/>
		<path class="st2" d="M1088.2,918.1h21.1c2.9,0,5.7,0.3,8.5,0.8c2.7,0.5,5.1,1.5,7.3,2.8c2.1,1.3,3.8,3.1,5.1,5.3
			c1.3,2.2,1.9,5.1,1.9,8.5c0,4.4-1.2,8.1-3.7,11.1c-2.4,3-5.9,4.8-10.4,5.4l16.1,26.9H1121l-14.1-25.8h-7.9v25.8h-10.8V918.1z
			 M1107.4,943.8c1.5,0,3.1-0.1,4.6-0.2c1.5-0.1,3-0.5,4.3-1c1.3-0.5,2.3-1.4,3.1-2.5c0.8-1.1,1.2-2.7,1.2-4.7
			c0-1.8-0.4-3.2-1.1-4.3c-0.7-1.1-1.7-1.9-2.9-2.4c-1.2-0.5-2.5-0.9-4-1.1s-2.9-0.3-4.3-0.3h-9.4v16.5H1107.4z"/>
		<path class="st2" d="M1174.5,931.1c-1.1-1.7-2.7-2.9-4.6-3.6c-1.9-0.8-3.9-1.2-6.1-1.2c-1.3,0-2.5,0.1-3.7,0.4
			c-1.2,0.3-2.2,0.7-3.2,1.4c-0.9,0.6-1.7,1.4-2.3,2.4c-0.6,1-0.9,2.2-0.9,3.6c0,2.1,0.7,3.6,2.1,4.7c1.4,1.1,3.2,2,5.3,2.8
			c2.1,0.8,4.4,1.6,7,2.3c2.5,0.7,4.8,1.8,7,3.1c2.1,1.3,3.9,3.1,5.3,5.2c1.4,2.2,2.1,5.1,2.1,8.7c0,3.3-0.6,6.1-1.8,8.5
			c-1.2,2.4-2.8,4.5-4.9,6.1c-2,1.6-4.4,2.8-7.1,3.6c-2.7,0.8-5.5,1.2-8.5,1.2c-3.8,0-7.4-0.6-10.9-1.9c-3.5-1.3-6.5-3.4-9-6.4
			l8.2-7.9c1.3,2,3,3.6,5.2,4.7c2.1,1.1,4.4,1.7,6.8,1.7c1.3,0,2.5-0.2,3.8-0.5c1.3-0.3,2.4-0.9,3.4-1.5c1-0.7,1.9-1.6,2.5-2.6
			c0.6-1.1,0.9-2.3,0.9-3.7c0-2.2-0.7-4-2.1-5.2c-1.4-1.2-3.2-2.2-5.3-3c-2.1-0.8-4.4-1.6-7-2.4c-2.5-0.7-4.8-1.8-7-3
			c-2.1-1.3-3.9-3-5.3-5.2c-1.4-2.1-2.1-5-2.1-8.6c0-3.1,0.6-5.9,1.9-8.2c1.3-2.3,3-4.2,5.1-5.7c2.1-1.5,4.5-2.6,7.2-3.4
			c2.7-0.7,5.4-1.1,8.2-1.1c3.2,0,6.3,0.5,9.3,1.5c3,1,5.7,2.6,8.1,4.8L1174.5,931.1z"/>
	</g>
</g>
<g>
	<g>
		<path class="st3" d="M1085.8,1157.3v1.9c0.2,1.6,0.2,3,0.1,4.3c-0.1,1.2-0.1,2.2-0.1,3c-0.3,6.2-0.7,10.7-1.2,13.6
			c0,1-0.4,1.7-1.2,2.2c0,2.3-0.4,3.8-1.2,4.6c0,8,0.1,13,0.2,15.1c0.3,3.9,0.5,9.2,0.5,15.8l0.2,5.8c0.2,1.3,0.2,3.2,0.2,5.6
			c0,2.6-0.3,4.9-1,6.8c0.3,1.3,0.5,3,0.5,5.1c0,1.8-0.2,3-0.5,3.7c-0.2,0.3-0.2,0.9-0.2,1.7c0,1.1,0.2,2.6,0.7,4.4
			c0.6,0.7,1.1,1.1,1.2,1.5c0.2,0.7,0.1,1.1-0.2,1.5l-1.7,2.2c-2.4,0-5-0.5-7.8-1.5c-1.6-0.2-4.2-0.2-7.8-0.2c-3.4,0-6.1,0.1-8,0.2
			c-2.3,0-4.5-0.5-6.8-1.5c-1.6-0.5-2.5-1.2-2.7-2.2c-1.1-4.7-1.7-10.8-1.7-18.3c0-5.8,0.5-14.3,1.5-25.3l1.2-12.9
			c-0.2-0.3-0.2-1.1-0.2-2.4c0-2.1,0.2-3.9,0.5-5.4c0.2-0.8,0.4-1.8,0.9-2.9c0.4-1.1,0.6-2,0.6-2.7c0-0.8-0.2-1.7-0.7-2.7
			c0.6-1,1.3-2.6,1.9-4.9v-0.2c1.5-6.5,2.2-10,2.2-10.5v-0.2h-4.9h-2.7l-1.2,0.2c-1,0-2.4,0.2-4.4,0.5c-2.4,0.3-8.6,1.7-18.5,4.1
			c-0.3,0.2-1,0.2-1.9,0.2c-1.8,0-3.4-0.5-4.9-1.5c-2.1-1.3-2.9-2.8-2.4-4.4c4.1-14.9,6.1-29.4,6.1-43.3c0-2.3-0.2-5.7-0.5-10.2
			l-0.7-9c-0.3-2.6-0.5-4.7-0.5-6.3c0-1.3,0.1-2.3,0.2-2.9c0.5-1.8,1.9-2.7,4.1-2.7c1.3,0,2.5,0.3,3.7,0.9c1.1,0.6,1.9,1.3,2.4,2.1
			c1.5,2.1,2.4,5.4,2.7,9.7c0.6,4.4,1.1,7.4,1.2,9c0.2,2.9,0.2,7.5,0.2,13.6c0,9.3-1.1,20-3.4,32.1c2.9-0.3,5.4-0.5,7.3-0.5
			c0.5,0,0.9-0.1,1.2-0.2c5.2-0.6,9.3-1,12.2-1c2.1,0,3.7,0.1,4.6,0.2h0.2c1.9-4.1,2.8-8.9,2.7-14.6c0-4.9,0.7-9.3,2.2-13.2
			c0-1.6,0.2-4.2,0.5-7.8c0.3-6.8,0.6-11.9,1-15.3c0.3-3.2,0.6-5.8,1-7.8c0.3-3.4,0.8-5.8,1.5-7.3l1-1.2c1.3,1.3,2.8,1.9,4.6,1.9
			h4.4c0,0.2,0.2,0.4,0.5,0.7c0.5-0.5,1.1-0.9,1.9-1.2c0.2,0,0.2-0.1,0.2-0.2h0.5c0.8,0.5,1.9,0.7,3.4,0.7c0.5,0,1.7-0.2,3.7-0.5
			c0.6-0.2,1.5-0.2,2.7-0.2c1.5,0,2.6,0.4,3.4,1.2c0.8,1.6,1.2,4.1,1.2,7.5c0,6.3-1.3,21-3.9,44.1l-1.7,17H1085.8z M1063.4,1248.6
			c-1,0-1.7-0.1-2.2-0.2c0,0.2,0.1,0.2,0.2,0.2H1063.4z"/>
		<path class="st3" d="M1193.4,1227.8c-0.3,1.1-0.3,2.2,0,3.3c-6,14.1-16.5,22.2-31.4,24.1c-2.3,0.3-5.5,0.5-9.7,0.5
			c-11,0-21.2-2.4-30.4-7.1c-2.6-3.2-5-7.5-7.1-12.7c-2.3-5-3.8-9.9-4.6-14.6c-0.3-1.9-0.5-3.4-0.5-4.4c0-6.2,2.8-12.7,8.5-19.5
			c3.9-4.7,9.9-10.5,18-17.3c-0.8-1.5-2.3-3.1-4.4-4.9c-1.9-1.6-3.2-2.9-3.9-3.9c-0.5-0.5-1-1.3-1.5-2.3c-0.5-1.1-1-1.8-1.5-2.3
			c-0.5-0.6-1.4-1.6-2.8-2.9c-1.4-1.3-2.4-2.6-3-3.9c-7.8-15.6-11.7-28.5-11.7-38.7c0-1.9,0.3-4.5,1-7.8
			c2.6-11.2,8.1-18.8,16.6-22.6c4.9-2.3,10-3.4,15.3-3.4c3.9,0,8.2,0.7,12.9,1.9c10.2,2.6,18.3,8,24.4,16.3c0.2,0.3,0.2,0.7,0.2,1.1
			c0,0.4,0.2,0.8,0.5,1.1c0.2,0.8,0.6,1.7,1.3,2.8c0.7,1.1,1.3,1.8,1.6,2.3c0.5,2.1,0.7,5.1,0.7,9c0,0.3-0.2,0.7-0.7,1
			c0.2,0.7,0.2,1.6,0.2,2.9v0.2c0.3,5.8-0.2,11.4-1.7,16.8c-1.5,5-3.6,9.7-6.3,13.9c-0.3,1.6-0.7,2.7-1,3.2
			c-0.2,0.5-0.7,1.3-1.7,2.6c-1,1.2-1.5,2.1-1.7,2.6c-2.1,3.2-4.7,5.9-7.8,8c2.4,4.1,5.9,7.7,10.5,11c4.4,3.4,7.8,7.4,10.2,11.9
			c0.6,1.8,1.7,3.6,3,5.5c1.4,1.9,2.5,3.5,3.3,5c2.4,3.9,4.1,7.6,4.9,11.2v1.2l-0.2,3.2c0,1.3,0.3,2.4,1,3.2
			C1193.9,1225.9,1193.7,1226.7,1193.4,1227.8z M1163.7,1225c0-4.1-0.6-8.4-1.7-12.9c-1-1.3-2.5-3.2-4.5-5.6c-2-2.4-3.4-4.7-4-6.8
			c-0.2-0.2-0.3-0.6-0.5-1.3c-0.2-0.7-0.4-1.3-0.7-1.6c-0.3-0.5-0.9-1-1.7-1.6c-0.8-0.6-1.5-1.1-1.9-1.6l-0.2-1.5
			c-1-1.1-2.3-2.4-4-3.8c-1.7-1.4-2.7-2.3-3-2.8c-1.1,0.8-2.8,1.8-4.9,2.9c-2.3,0.8-4.1,1.8-5.4,2.9c-0.8,0.8-1.6,1.6-2.3,2.3
			s-1.4,1.4-2.1,2.1c-1.5,1.1-2.5,2.3-3.2,3.5c-0.7,1.2-1.3,2.6-1.9,4.3c-0.7,1.6-1.3,3.1-1.9,4.4c-1.3,3.1-1.9,6.2-1.9,9.3
			c0,3.2,0.8,7.3,2.4,12.2c1.9,4.9,4.1,8.2,6.6,10c6.5,4.5,12.5,6.8,18,6.8c3.9,0,7.4-1.1,10.5-3.2
			C1160.9,1239.6,1163.7,1233.6,1163.7,1225z M1137.6,1144.1c1,2.8,3.6,6.7,7.8,11.9c0.5,0.8,1.1,1.9,1.9,3.4
			c0.8,1.5,1.6,2.6,2.4,3.4c0.8,0.8,1.9,1.5,3.2,2.2c4.1-4.2,7.2-8.1,9.5-11.6c2.3-3.5,3.7-7.6,4.4-12.3l0.7-11.9
			c0-0.5,0.2-0.9,0.5-1.2c0.3-0.3,0.5-0.7,0.5-1.2c0-2.8-0.9-5.9-2.6-9.4c-1.7-3.5-3.7-6.7-6-9.6c-5.2-3.6-9.7-5.4-13.4-5.4
			c-3.6,0-6.2,1.8-7.8,5.4c-2.4,5.5-3.7,12.1-3.7,19.7c0,2.3,0.1,4.1,0.2,5.4C1135.5,1137.5,1136.2,1141.2,1137.6,1144.1z"/>
	</g>
	<g>
		<path class="st3" d="M1022.1,1269.6h10.8v24.2h28.4v-24.2h10.8v60.8h-10.8v-26.8H1033v26.8h-10.8V1269.6z"/>
		<path class="st3" d="M1087.9,1269.6h21.1c2.9,0,5.7,0.3,8.5,0.8c2.7,0.5,5.1,1.5,7.3,2.8c2.1,1.3,3.8,3.1,5.1,5.3
			c1.3,2.2,1.9,5.1,1.9,8.5c0,4.4-1.2,8.1-3.7,11.1c-2.4,3-5.9,4.8-10.4,5.4l16.1,26.9h-13.1l-14.1-25.8h-7.9v25.8h-10.8V1269.6z
			 M1107.2,1295.4c1.5,0,3.1-0.1,4.6-0.2c1.5-0.1,3-0.5,4.3-1c1.3-0.5,2.3-1.4,3.1-2.5c0.8-1.1,1.2-2.7,1.2-4.7
			c0-1.8-0.4-3.2-1.1-4.3c-0.7-1.1-1.7-1.9-2.9-2.4c-1.2-0.5-2.5-0.9-4-1.1s-2.9-0.3-4.3-0.3h-9.4v16.5H1107.2z"/>
		<path class="st3" d="M1174,1282.7c-1.1-1.7-2.7-2.9-4.6-3.6c-1.9-0.8-3.9-1.2-6.1-1.2c-1.3,0-2.5,0.1-3.7,0.4
			c-1.2,0.3-2.2,0.7-3.2,1.4c-0.9,0.6-1.7,1.4-2.3,2.4c-0.6,1-0.9,2.2-0.9,3.6c0,2.1,0.7,3.6,2.1,4.7c1.4,1.1,3.2,2,5.3,2.8
			c2.1,0.8,4.4,1.6,7,2.3c2.5,0.7,4.8,1.8,7,3.1c2.1,1.3,3.9,3.1,5.3,5.2c1.4,2.2,2.1,5.1,2.1,8.7c0,3.3-0.6,6.1-1.8,8.5
			c-1.2,2.4-2.8,4.5-4.9,6.1c-2,1.6-4.4,2.8-7.1,3.6c-2.7,0.8-5.5,1.2-8.5,1.2c-3.8,0-7.4-0.6-10.9-1.9c-3.5-1.3-6.5-3.4-9-6.4
			l8.2-7.9c1.3,2,3,3.6,5.2,4.7c2.1,1.1,4.4,1.7,6.8,1.7c1.3,0,2.5-0.2,3.8-0.5c1.3-0.3,2.4-0.9,3.4-1.5c1-0.7,1.9-1.6,2.5-2.6
			c0.6-1.1,0.9-2.3,0.9-3.7c0-2.2-0.7-4-2.1-5.2c-1.4-1.2-3.2-2.2-5.3-3c-2.1-0.8-4.4-1.6-7-2.4c-2.5-0.7-4.8-1.8-7-3
			c-2.1-1.3-3.9-3-5.3-5.2c-1.4-2.1-2.1-5-2.1-8.6c0-3.1,0.6-5.9,1.9-8.2c1.3-2.3,3-4.2,5.1-5.7c2.1-1.5,4.5-2.6,7.2-3.4
			c2.7-0.7,5.4-1.1,8.2-1.1c3.2,0,6.3,0.5,9.3,1.5c3,1,5.7,2.6,8.1,4.8L1174,1282.7z"/>
	</g>
</g>
<g>
	<g>
		<path class="st1" d="M1085.8,1533.8v1.9c0.2,1.6,0.2,3,0.1,4.3c-0.1,1.2-0.1,2.2-0.1,3c-0.3,6.2-0.7,10.7-1.2,13.6
			c0,1-0.4,1.7-1.2,2.2c0,2.3-0.4,3.8-1.2,4.6c0,8,0.1,13,0.2,15.1c0.3,3.9,0.5,9.2,0.5,15.8l0.2,5.8c0.2,1.3,0.2,3.2,0.2,5.6
			c0,2.6-0.3,4.9-1,6.8c0.3,1.3,0.5,3,0.5,5.1c0,1.8-0.2,3-0.5,3.7c-0.2,0.3-0.2,0.9-0.2,1.7c0,1.1,0.2,2.6,0.7,4.4
			c0.6,0.7,1.1,1.1,1.2,1.5c0.2,0.7,0.1,1.1-0.2,1.5l-1.7,2.2c-2.4,0-5-0.5-7.8-1.5c-1.6-0.2-4.2-0.2-7.8-0.2c-3.4,0-6.1,0.1-8,0.2
			c-2.3,0-4.5-0.5-6.8-1.5c-1.6-0.5-2.5-1.2-2.7-2.2c-1.1-4.7-1.7-10.8-1.7-18.3c0-5.8,0.5-14.3,1.5-25.3l1.2-12.9
			c-0.2-0.3-0.2-1.1-0.2-2.4c0-2.1,0.2-3.9,0.5-5.4c0.2-0.8,0.4-1.8,0.9-2.9c0.4-1.1,0.6-2,0.6-2.7c0-0.8-0.2-1.7-0.7-2.7
			c0.6-1,1.3-2.6,1.9-4.9v-0.2c1.5-6.5,2.2-10,2.2-10.5v-0.2h-4.9h-2.7l-1.2,0.2c-1,0-2.4,0.2-4.4,0.5c-2.4,0.3-8.6,1.7-18.5,4.1
			c-0.3,0.2-1,0.2-1.9,0.2c-1.8,0-3.4-0.5-4.9-1.5c-2.1-1.3-2.9-2.8-2.4-4.4c4.1-14.9,6.1-29.4,6.1-43.3c0-2.3-0.2-5.7-0.5-10.2
			l-0.7-9c-0.3-2.6-0.5-4.7-0.5-6.3c0-1.3,0.1-2.3,0.2-2.9c0.5-1.8,1.9-2.7,4.1-2.7c1.3,0,2.5,0.3,3.7,0.9c1.1,0.6,1.9,1.3,2.4,2.1
			c1.5,2.1,2.4,5.4,2.7,9.7c0.6,4.4,1.1,7.4,1.2,9c0.2,2.9,0.2,7.5,0.2,13.6c0,9.3-1.1,20-3.4,32.1c2.9-0.3,5.4-0.5,7.3-0.5
			c0.5,0,0.9-0.1,1.2-0.2c5.2-0.6,9.3-1,12.2-1c2.1,0,3.7,0.1,4.6,0.2h0.2c1.9-4.1,2.8-8.9,2.7-14.6c0-4.9,0.7-9.3,2.2-13.2
			c0-1.6,0.2-4.2,0.5-7.8c0.3-6.8,0.6-11.9,1-15.3c0.3-3.2,0.6-5.8,1-7.8c0.3-3.4,0.8-5.8,1.5-7.3l1-1.2c1.3,1.3,2.8,1.9,4.6,1.9
			h4.4c0,0.2,0.2,0.4,0.5,0.7c0.5-0.5,1.1-0.9,1.9-1.2c0.2,0,0.2-0.1,0.2-0.2h0.5c0.8,0.5,1.9,0.7,3.4,0.7c0.5,0,1.7-0.2,3.7-0.5
			c0.6-0.2,1.5-0.2,2.7-0.2c1.5,0,2.6,0.4,3.4,1.2c0.8,1.6,1.2,4.1,1.2,7.5c0,6.3-1.3,21-3.9,44.1l-1.7,17H1085.8z M1063.4,1625.1
			c-1,0-1.7-0.1-2.2-0.2c0,0.2,0.1,0.2,0.2,0.2H1063.4z"/>
		<path class="st1" d="M1193.4,1604.3c-0.3,1.1-0.3,2.2,0,3.3c-6,14.1-16.5,22.2-31.4,24.1c-2.3,0.3-5.5,0.5-9.7,0.5
			c-11,0-21.2-2.4-30.4-7.1c-2.6-3.2-5-7.5-7.1-12.7c-2.3-5-3.8-9.9-4.6-14.6c-0.3-1.9-0.5-3.4-0.5-4.4c0-6.2,2.8-12.7,8.5-19.5
			c3.9-4.7,9.9-10.5,18-17.3c-0.8-1.5-2.3-3.1-4.4-4.9c-1.9-1.6-3.2-2.9-3.9-3.9c-0.5-0.5-1-1.3-1.5-2.3c-0.5-1.1-1-1.8-1.5-2.3
			c-0.5-0.6-1.4-1.6-2.8-2.9c-1.4-1.3-2.4-2.6-3-3.9c-7.8-15.6-11.7-28.5-11.7-38.7c0-1.9,0.3-4.5,1-7.8
			c2.6-11.2,8.1-18.8,16.6-22.6c4.9-2.3,10-3.4,15.3-3.4c3.9,0,8.2,0.7,12.9,1.9c10.2,2.6,18.3,8,24.4,16.3c0.2,0.3,0.2,0.7,0.2,1.1
			c0,0.4,0.2,0.8,0.5,1.1c0.2,0.8,0.6,1.7,1.3,2.8c0.7,1.1,1.3,1.8,1.6,2.3c0.5,2.1,0.7,5.1,0.7,9c0,0.3-0.2,0.7-0.7,1
			c0.2,0.7,0.2,1.6,0.2,2.9v0.2c0.3,5.8-0.2,11.4-1.7,16.8c-1.5,5-3.6,9.7-6.3,13.9c-0.3,1.6-0.7,2.7-1,3.2
			c-0.2,0.5-0.7,1.3-1.7,2.6c-1,1.2-1.5,2.1-1.7,2.6c-2.1,3.2-4.7,5.9-7.8,8c2.4,4.1,5.9,7.7,10.5,11c4.4,3.4,7.8,7.4,10.2,11.9
			c0.6,1.8,1.7,3.6,3,5.5c1.4,1.9,2.5,3.5,3.3,5c2.4,3.9,4.1,7.6,4.9,11.2v1.2l-0.2,3.2c0,1.3,0.3,2.4,1,3.2
			C1193.9,1602.4,1193.7,1603.2,1193.4,1604.3z M1163.7,1601.5c0-4.1-0.6-8.4-1.7-12.9c-1-1.3-2.5-3.2-4.5-5.6c-2-2.4-3.4-4.7-4-6.8
			c-0.2-0.2-0.3-0.6-0.5-1.3c-0.2-0.7-0.4-1.3-0.7-1.6c-0.3-0.5-0.9-1-1.7-1.6c-0.8-0.6-1.5-1.1-1.9-1.6l-0.2-1.5
			c-1-1.1-2.3-2.4-4-3.8c-1.7-1.4-2.7-2.3-3-2.8c-1.1,0.8-2.8,1.8-4.9,2.9c-2.3,0.8-4.1,1.8-5.4,2.9c-0.8,0.8-1.6,1.6-2.3,2.3
			s-1.4,1.4-2.1,2.1c-1.5,1.1-2.5,2.3-3.2,3.5c-0.7,1.2-1.3,2.6-1.9,4.3c-0.7,1.6-1.3,3.1-1.9,4.4c-1.3,3.1-1.9,6.2-1.9,9.3
			c0,3.2,0.8,7.3,2.4,12.2c1.9,4.9,4.1,8.2,6.6,10c6.5,4.5,12.5,6.8,18,6.8c3.9,0,7.4-1.1,10.5-3.2
			C1160.9,1616.1,1163.7,1610.1,1163.7,1601.5z M1137.6,1520.6c1,2.8,3.6,6.7,7.8,11.9c0.5,0.8,1.1,1.9,1.9,3.4
			c0.8,1.5,1.6,2.6,2.4,3.4c0.8,0.8,1.9,1.5,3.2,2.2c4.1-4.2,7.2-8.1,9.5-11.6c2.3-3.5,3.7-7.6,4.4-12.3l0.7-11.9
			c0-0.5,0.2-0.9,0.5-1.2c0.3-0.3,0.5-0.7,0.5-1.2c0-2.8-0.9-5.9-2.6-9.4c-1.7-3.5-3.7-6.7-6-9.6c-5.2-3.6-9.7-5.4-13.4-5.4
			c-3.6,0-6.2,1.8-7.8,5.4c-2.4,5.5-3.7,12.1-3.7,19.7c0,2.3,0.1,4.1,0.2,5.4C1135.5,1514,1136.2,1517.7,1137.6,1520.6z"/>
	</g>
	<g>
		<path class="st1" d="M1022.1,1646.1h10.8v24.2h28.4v-24.2h10.8v60.8h-10.8v-26.8H1033v26.8h-10.8V1646.1z"/>
		<path class="st1" d="M1087.9,1646.1h21.1c2.9,0,5.7,0.3,8.5,0.8c2.7,0.5,5.1,1.5,7.3,2.8c2.1,1.3,3.8,3.1,5.1,5.3
			c1.3,2.2,1.9,5.1,1.9,8.5c0,4.4-1.2,8.1-3.7,11.1c-2.4,3-5.9,4.8-10.4,5.4l16.1,26.9h-13.1l-14.1-25.8h-7.9v25.8h-10.8V1646.1z
			 M1107.2,1671.8c1.5,0,3.1-0.1,4.6-0.2c1.5-0.1,3-0.5,4.3-1c1.3-0.5,2.3-1.4,3.1-2.5c0.8-1.1,1.2-2.7,1.2-4.7
			c0-1.8-0.4-3.2-1.1-4.3c-0.7-1.1-1.7-1.9-2.9-2.4c-1.2-0.5-2.5-0.9-4-1.1s-2.9-0.3-4.3-0.3h-9.4v16.5H1107.2z"/>
		<path class="st1" d="M1174,1659.1c-1.1-1.7-2.7-2.9-4.6-3.6c-1.9-0.8-3.9-1.2-6.1-1.2c-1.3,0-2.5,0.1-3.7,0.4
			c-1.2,0.3-2.2,0.7-3.2,1.4c-0.9,0.6-1.7,1.4-2.3,2.4c-0.6,1-0.9,2.2-0.9,3.6c0,2.1,0.7,3.6,2.1,4.7c1.4,1.1,3.2,2,5.3,2.8
			c2.1,0.8,4.4,1.6,7,2.3c2.5,0.7,4.8,1.8,7,3.1c2.1,1.3,3.9,3.1,5.3,5.2c1.4,2.2,2.1,5.1,2.1,8.7c0,3.3-0.6,6.1-1.8,8.5
			c-1.2,2.4-2.8,4.5-4.9,6.1c-2,1.6-4.4,2.8-7.1,3.6c-2.7,0.8-5.5,1.2-8.5,1.2c-3.8,0-7.4-0.6-10.9-1.9c-3.5-1.3-6.5-3.4-9-6.4
			l8.2-7.9c1.3,2,3,3.6,5.2,4.7c2.1,1.1,4.4,1.7,6.8,1.7c1.3,0,2.5-0.2,3.8-0.5c1.3-0.3,2.4-0.9,3.4-1.5c1-0.7,1.9-1.6,2.5-2.6
			c0.6-1.1,0.9-2.3,0.9-3.7c0-2.2-0.7-4-2.1-5.2c-1.4-1.2-3.2-2.2-5.3-3c-2.1-0.8-4.4-1.6-7-2.4c-2.5-0.7-4.8-1.8-7-3
			c-2.1-1.3-3.9-3-5.3-5.2c-1.4-2.1-2.1-5-2.1-8.6c0-3.1,0.6-5.9,1.9-8.2c1.3-2.3,3-4.2,5.1-5.7c2.1-1.5,4.5-2.6,7.2-3.4
			c2.7-0.7,5.4-1.1,8.2-1.1c3.2,0,6.3,0.5,9.3,1.5c3,1,5.7,2.6,8.1,4.8L1174,1659.1z"/>
	</g>
</g>
<rect x="266" y="1441.1" class="st3" width="284" height="285"/>
<text transform="matrix(1 0 0 1 315.1931 1632.8899)" class="st1" style="font-family:'Breathe-Regular'; font-size:243.534px; letter-spacing:6;">48</text>
<text transform="matrix(1 0 0 1 321.239 1706.8827)" class="st1" style="font-family:'Avenir-Light'; font-size:85.8823px; letter-spacing:2;">hrs</text>
</svg>
