<?xml version="1.0" encoding="utf-8"?>
<!-- Generator: Adobe Illustrator 19.0.0, SVG Export Plug-In . SVG Version: 6.00 Build 0)  -->
<svg version="1.1" id="Layer_1" xmlns="http://www.w3.org/2000/svg" xmlns:xlink="http://www.w3.org/1999/xlink" x="0px" y="0px"
	 viewBox="0 0 52.6 49" style="enable-background:new 0 0 52.6 49;" xml:space="preserve">
<style type="text/css">
	.st0{fill:#FFFFFF;}
	.st1{font-family:'OriyaSangamMN-Bold';}
	.st2{font-size:33.8797px;}
	.st3{letter-spacing:-1;}
	.st4{font-family:'KhmerMN';}
	.st5{font-size:17.9201px;}
</style>
<rect id="XMLID_6_" x="-154" y="-18.4" width="72.8" height="71.7"/>
<g id="XMLID_4_">
	<text id="XMLID_2_" transform="matrix(1 0 0 1 -149.058 30.9034)" class="st0 st2" style="font-family:'ShreeDev0714';">48</text>
	<text id="XMLID_5_" transform="matrix(1 0 0 1 -145.9999 30.9034)" class="st0 st2" style="font-family:'ShreeDev0714';">48</text>
</g>
<text id="XMLID_1_" transform="matrix(0.6949 0 0 1 -107.7084 16.2189)" class="st0 st4 st5">hrs</text>
<g id="XMLID_7_">
	<g id="XMLID_17_">
		<text id="XMLID_18_" transform="matrix(1 0 0 1 1.373291e-04 28.1536)" class="st0 st1 st2 st3">48</text>
	</g>
	<text id="XMLID_10_" transform="matrix(0.6949 0 0 1 32.0416 19.219)" class="st0 st4 st5">hrs</text>
</g>
<rect id="XMLID_13_" x="-154.5" y="126" width="72.8" height="71.7"/>
<text id="XMLID_16_" transform="matrix(0.6949 0 0 1 -121.4769 186.6545)" class="st0 st4" style="font-size:28.746px;">r</text>
<text id="XMLID_8_" transform="matrix(0.6949 0 0 1 -130.3686 155.6964)" class="st0 st4" style="font-size:28.746px;">4</text>
<text id="XMLID_11_" transform="matrix(0.6949 0 0 1 -114.8493 155.6964)" class="st0 st4" style="font-size:28.746px;">8</text>
<text id="XMLID_12_" transform="matrix(0.6949 0 0 1 -140.2253 174.96)" class="st0 st4" style="font-size:28.746px;">h</text>
<text id="XMLID_15_" transform="matrix(0.6949 0 0 1 -104.2932 174.96)" class="st0 st4" style="font-size:28.746px;">s</text>
<rect id="XMLID_27_" x="-8.5" y="126" width="72.8" height="71.7"/>
<text id="XMLID_25_" transform="matrix(0.6949 0 0 1 24.5231 186.6545)" class="st0" style="font-family:'PingFangTC-Light-B5pc-H'; font-size:28.746px;">r</text>
<text id="XMLID_24_" transform="matrix(0.6949 0 0 1 15.6314 155.6964)" class="st0" style="font-family:'PingFangTC-Light-B5pc-H'; font-size:28.746px;">4</text>
<text id="XMLID_23_" transform="matrix(0.6949 0 0 1 31.1507 155.6964)" class="st0" style="font-family:'PingFangTC-Light-B5pc-H'; font-size:28.746px;">8</text>
<text id="XMLID_22_" transform="matrix(0.6949 0 0 1 5.7747 174.96)" class="st0" style="font-family:'PingFangTC-Light-B5pc-H'; font-size:28.746px;">h</text>
<text id="XMLID_21_" transform="matrix(0.6949 0 0 1 41.7068 174.96)" class="st0" style="font-family:'PingFangTC-Light-B5pc-H'; font-size:28.746px;">s</text>
</svg>
