<?xml version="1.0" encoding="utf-8"?>
<!-- Generator: Adobe Illustrator 19.0.0, SVG Export Plug-In . SVG Version: 6.00 Build 0)  -->
<svg version="1.1" id="Layer_1" xmlns="http://www.w3.org/2000/svg" xmlns:xlink="http://www.w3.org/1999/xlink" x="0px" y="0px"
	 viewBox="0 0 48.2 86.8" style="enable-background:new 0 0 48.2 86.8;" xml:space="preserve">
<style type="text/css">
	.st0{fill:#FFFFFF;}
</style>
<rect id="XMLID_6_" x="-376.5" y="29.8" width="72.8" height="71.7"/>
<g id="XMLID_4_">
	
		<text id="XMLID_2_" transform="matrix(1 0 0 1 -371.6035 79.0699)" class="st0" style="font-family:'ShreeDev0714'; font-size:33.8797px;">48</text>
	
		<text id="XMLID_5_" transform="matrix(1 0 0 1 -368.5453 79.0699)" class="st0" style="font-family:'ShreeDev0714'; font-size:33.8797px;">48</text>
</g>
<text id="XMLID_1_" transform="matrix(0.6949 0 0 1 -330.2538 64.3854)" class="st0" style="font-family:'KhmerMN'; font-size:17.9201px;">hrs</text>
<g id="XMLID_7_">
	<g id="XMLID_17_">
		
			<text id="XMLID_18_" transform="matrix(1 0 0 1 -222.5453 76.3201)" class="st0" style="font-family:'OriyaSangamMN-Bold'; font-size:33.8797px; letter-spacing:-1;">48</text>
	</g>
	
		<text id="XMLID_10_" transform="matrix(0.6949 0 0 1 -190.5038 67.3855)" class="st0" style="font-family:'KhmerMN'; font-size:17.9201px;">hrs</text>
</g>
<rect id="XMLID_13_" x="-377" y="174.2" width="72.8" height="71.7"/>
<text id="XMLID_16_" transform="matrix(0.6949 0 0 1 -344.0223 234.821)" class="st0" style="font-family:'KhmerMN'; font-size:28.746px;">r</text>
<text id="XMLID_8_" transform="matrix(0.6949 0 0 1 -352.914 203.8629)" class="st0" style="font-family:'KhmerMN'; font-size:28.746px;">4</text>
<text id="XMLID_11_" transform="matrix(0.6949 0 0 1 -337.3947 203.8629)" class="st0" style="font-family:'KhmerMN'; font-size:28.746px;">8</text>
<text id="XMLID_12_" transform="matrix(0.6949 0 0 1 -362.7707 223.1265)" class="st0" style="font-family:'KhmerMN'; font-size:28.746px;">h</text>
<text id="XMLID_15_" transform="matrix(0.6949 0 0 1 -326.8387 223.1265)" class="st0" style="font-family:'KhmerMN'; font-size:28.746px;">s</text>
<rect id="XMLID_27_" x="-231" y="174.2" width="72.8" height="71.7"/>
<text id="XMLID_25_" transform="matrix(0.6949 0 0 1 -198.0223 234.821)" class="st0" style="font-family:'PingFangTC-Light-B5pc-H'; font-size:28.746px;">r</text>
<text id="XMLID_24_" transform="matrix(0.6949 0 0 1 -206.914 203.8629)" class="st0" style="font-family:'PingFangTC-Light-B5pc-H'; font-size:28.746px;">4</text>
<text id="XMLID_23_" transform="matrix(0.6949 0 0 1 -191.3947 203.8629)" class="st0" style="font-family:'PingFangTC-Light-B5pc-H'; font-size:28.746px;">8</text>
<text id="XMLID_22_" transform="matrix(0.6949 0 0 1 -216.7707 223.1265)" class="st0" style="font-family:'PingFangTC-Light-B5pc-H'; font-size:28.746px;">h</text>
<text id="XMLID_21_" transform="matrix(0.6949 0 0 1 -180.8387 223.1265)" class="st0" style="font-family:'PingFangTC-Light-B5pc-H'; font-size:28.746px;">s</text>
<text id="XMLID_39_" transform="matrix(1 0 0 1 -97.9248 38.4482)"><tspan x="0" y="0" class="st0" style="font-family:'DINCondensed-Bold'; font-size:54px;">MY</tspan><tspan x="5.4" y="48" class="st0" style="font-family:'DINCondensed-Bold'; font-size:54px;">48</tspan></text>
<g id="XMLID_40_">
	<path id="XMLID_42_" class="st0" d="M0,0h5.3l7.1,20.4h0.1l7-20.4h5.3v38.4h-5.5V15.1h-0.1l-5.5,16.5H11L5.6,15.1H5.5v23.4H0V0z"/>
	<path id="XMLID_44_" class="st0" d="M35.2,22.2L27.6,0h5.8l4.4,15.3H38L42.4,0h5.8l-7.6,22.2v16.3h-5.5V22.2z"/>
	<path id="XMLID_46_" class="st0" d="M14.3,80.7h-11v-5.2L11.2,48h5.8L8.8,75.5h5.5v-11h5.5v11h2.6v5.2h-2.6v5.7h-5.5V80.7z"/>
	<path id="XMLID_48_" class="st0" d="M24.7,58c0-1,0-1.9,0.1-2.7c0.1-0.7,0.2-1.4,0.4-1.9s0.4-1,0.6-1.5c0.3-0.4,0.6-0.9,0.9-1.3
		c0.7-0.9,1.6-1.7,2.7-2.2c1.1-0.5,2.2-0.8,3.5-0.8c1.3,0,2.4,0.3,3.5,0.8c1.1,0.5,2,1.3,2.7,2.2c0.4,0.5,0.7,0.9,0.9,1.3
		c0.3,0.4,0.5,0.9,0.6,1.5s0.3,1.2,0.4,1.9c0.1,0.7,0.1,1.6,0.1,2.7c0,1.2,0,2.1-0.1,2.9c0,0.8-0.1,1.5-0.3,2.1
		c-0.2,0.6-0.5,1.2-0.8,1.6c-0.4,0.5-0.9,1-1.5,1.5c0.6,0.5,1.2,1,1.5,1.5c0.4,0.5,0.7,1.1,0.8,1.8c0.2,0.7,0.3,1.5,0.3,2.5
		c0,1,0.1,2.2,0.1,3.6c0,1.2,0,2.2-0.1,2.9c-0.1,0.8-0.1,1.4-0.2,2c-0.1,0.6-0.3,1.1-0.5,1.5c-0.2,0.4-0.4,0.8-0.7,1.2
		c-0.6,0.9-1.5,1.7-2.6,2.4c-1.1,0.7-2.5,1-4.1,1s-3-0.3-4.1-1c-1.1-0.7-2-1.5-2.6-2.4c-0.3-0.4-0.5-0.8-0.7-1.2
		c-0.2-0.4-0.4-0.9-0.5-1.5c-0.1-0.6-0.2-1.3-0.2-2c-0.1-0.8-0.1-1.8-0.1-2.9c0-1.4,0-2.7,0.1-3.6c0-1,0.1-1.8,0.3-2.5
		c0.2-0.7,0.5-1.3,0.8-1.8c0.4-0.5,0.9-1,1.5-1.5c-0.6-0.5-1.2-1.1-1.5-1.5c-0.4-0.5-0.7-1-0.8-1.6c-0.2-0.6-0.3-1.3-0.3-2.1
		C24.7,60.2,24.7,59.2,24.7,58z M35.6,55.9c0-0.8-0.3-1.4-0.8-1.9c-0.5-0.5-1.2-0.8-1.9-0.8c-0.7,0-1.3,0.3-1.9,0.8
		c-0.5,0.5-0.8,1.2-0.8,1.9v5.6c0,0.8,0.3,1.4,0.8,1.9c0.5,0.5,1.2,0.8,1.9,0.8c0.7,0,1.3-0.3,1.9-0.8c0.5-0.5,0.8-1.2,0.8-1.9V55.9
		z M35.6,71c0-0.8-0.3-1.4-0.8-1.9c-0.5-0.5-1.2-0.8-1.9-0.8c-0.7,0-1.3,0.3-1.9,0.8c-0.5,0.5-0.8,1.2-0.8,1.9v7.6
		c0,0.8,0.3,1.4,0.8,1.9c0.5,0.5,1.2,0.8,1.9,0.8c0.7,0,1.3-0.3,1.9-0.8c0.5-0.5,0.8-1.2,0.8-1.9V71z"/>
</g>
</svg>
