<?xml version="1.0" encoding="utf-8"?>
<!-- Generator: Adobe Illustrator 19.0.0, SVG Export Plug-In . SVG Version: 6.00 Build 0)  -->
<svg version="1.1" id="Layer_1" xmlns="http://www.w3.org/2000/svg" xmlns:xlink="http://www.w3.org/1999/xlink" x="0px" y="0px"
	 viewBox="-273 378.1 48.2 86.8" style="enable-background:new -273 378.1 48.2 86.8;" xml:space="preserve">
<style type="text/css">
	.st0{enable-background:new    ;}
	.st1{fill:#FFFFFF;}
	.st2{fill:#F7DB61;}
</style>
<rect id="XMLID_6_" x="-649.5" y="407.9" width="72.8" height="71.7"/>
<g id="XMLID_4_">
	
		<text id="XMLID_2_" transform="matrix(1 0 0 1 -644.6035 457.1599)" class="st1" style="font-family:'ShreeDev0714'; font-size:33.8797px;">48</text>
	
		<text id="XMLID_5_" transform="matrix(1 0 0 1 -641.5453 457.1599)" class="st1" style="font-family:'ShreeDev0714'; font-size:33.8797px;">48</text>
</g>
<text id="XMLID_1_" transform="matrix(0.6949 0 0 1 -603.2539 442.4751)" class="st1" style="font-family:'KhmerMN'; font-size:17.9201px;">hrs</text>
<g id="XMLID_7_">
	<g id="XMLID_17_">
		
			<text id="XMLID_18_" transform="matrix(1 0 0 1 -495.5453 454.4101)" class="st1" style="font-family:'OriyaSangamMN-Bold'; font-size:33.8797px;">48</text>
	</g>
	
		<text id="XMLID_10_" transform="matrix(0.6949 0 0 1 -463.5039 445.4756)" class="st1" style="font-family:'KhmerMN'; font-size:17.9201px;">hrs</text>
</g>
<rect id="XMLID_13_" x="-650" y="552.3" width="72.8" height="71.7"/>
<text id="XMLID_16_" transform="matrix(0.6949 0 0 1 -617.0225 612.9111)" class="st1" style="font-family:'KhmerMN'; font-size:28.746px;">r</text>
<text id="XMLID_8_" transform="matrix(0.6949 0 0 1 -625.9141 581.9526)" class="st1" style="font-family:'KhmerMN'; font-size:28.746px;">4</text>
<text id="XMLID_11_" transform="matrix(0.6949 0 0 1 -610.3945 581.9526)" class="st1" style="font-family:'KhmerMN'; font-size:28.746px;">8</text>
<text id="XMLID_12_" transform="matrix(0.6949 0 0 1 -635.7705 601.2163)" class="st1" style="font-family:'KhmerMN'; font-size:28.746px;">h</text>
<text id="XMLID_15_" transform="matrix(0.6949 0 0 1 -599.8389 601.2163)" class="st1" style="font-family:'KhmerMN'; font-size:28.746px;">s</text>
<rect id="XMLID_27_" x="-504" y="552.3" width="72.8" height="71.7"/>
<text id="XMLID_25_" transform="matrix(0.6949 0 0 1 -471.0225 612.9111)" class="st1" style="font-family:'PingFangTC-Light-B5pc-H'; font-size:28.746px;">r</text>
<text id="XMLID_24_" transform="matrix(0.6949 0 0 1 -479.914 581.9526)" class="st1" style="font-family:'PingFangTC-Light-B5pc-H'; font-size:28.746px;">4</text>
<text id="XMLID_23_" transform="matrix(0.6949 0 0 1 -464.3946 581.9526)" class="st1" style="font-family:'PingFangTC-Light-B5pc-H'; font-size:28.746px;">8</text>
<text id="XMLID_22_" transform="matrix(0.6949 0 0 1 -489.7704 601.2163)" class="st1" style="font-family:'PingFangTC-Light-B5pc-H'; font-size:28.746px;">h</text>
<text id="XMLID_21_" transform="matrix(0.6949 0 0 1 -453.8388 601.2163)" class="st1" style="font-family:'PingFangTC-Light-B5pc-H'; font-size:28.746px;">s</text>
<text transform="matrix(1 0 0 1 -370.9248 416.5382)" class="st1" style="font-family:'DINCondensed-Bold'; font-size:54px;">MY</text>
<text transform="matrix(1 0 0 1 -365.5248 464.5382)" class="st1" style="font-family:'DINCondensed-Bold'; font-size:54px;">48</text>
<g id="XMLID_40_">
	<path id="XMLID_42_" class="st2" d="M-273,378.1h5.3l7.1,20.4h0.1l7-20.4h5.3v38.4h-5.5v-23.3h-0.1l-5.5,16.5h-2.7l-5.4-16.5h-0.1
		v23.4h-5.5V378.1z"/>
	<path id="XMLID_44_" class="st2" d="M-237.8,400.3l-7.6-22.2h5.8l4.4,15.3h0.2l4.4-15.3h5.8l-7.6,22.2v16.3h-5.5L-237.8,400.3
		L-237.8,400.3z"/>
	<path id="XMLID_46_" class="st2" d="M-258.7,458.8h-11v-5.2l7.9-27.5h5.8l-8.2,27.5h5.5v-11h5.5v11h2.6v5.2h-2.6v5.7h-5.5
		C-258.7,464.5-258.7,458.8-258.7,458.8z"/>
	<path id="XMLID_48_" class="st2" d="M-248.3,436.1c0-1,0-1.9,0.1-2.7c0.1-0.7,0.2-1.4,0.4-1.9s0.4-1,0.6-1.5
		c0.3-0.4,0.6-0.9,0.9-1.3c0.7-0.9,1.6-1.7,2.7-2.2c1.1-0.5,2.2-0.8,3.5-0.8c1.3,0,2.4,0.3,3.5,0.8c1.1,0.5,2,1.3,2.7,2.2
		c0.4,0.5,0.7,0.9,0.9,1.3c0.3,0.4,0.5,0.9,0.6,1.5c0.1,0.6,0.3,1.2,0.4,1.9s0.1,1.6,0.1,2.7c0,1.2,0,2.1-0.1,2.9
		c0,0.8-0.1,1.5-0.3,2.1c-0.2,0.6-0.5,1.2-0.8,1.6c-0.4,0.5-0.9,1-1.5,1.5c0.6,0.5,1.2,1,1.5,1.5c0.4,0.5,0.7,1.1,0.8,1.8
		c0.2,0.7,0.3,1.5,0.3,2.5s0.1,2.2,0.1,3.6c0,1.2,0,2.2-0.1,2.9c-0.1,0.8-0.1,1.4-0.2,2c-0.1,0.6-0.3,1.1-0.5,1.5s-0.4,0.8-0.7,1.2
		c-0.6,0.9-1.5,1.7-2.6,2.4c-1.1,0.7-2.5,1-4.1,1c-1.6,0-3-0.3-4.1-1c-1.1-0.7-2-1.5-2.6-2.4c-0.3-0.4-0.5-0.8-0.7-1.2
		c-0.2-0.4-0.4-0.9-0.5-1.5c-0.1-0.6-0.2-1.3-0.2-2c-0.1-0.8-0.1-1.8-0.1-2.9c0-1.4,0-2.7,0.1-3.6c0-1,0.1-1.8,0.3-2.5
		c0.2-0.7,0.5-1.3,0.8-1.8c0.4-0.5,0.9-1,1.5-1.5c-0.6-0.5-1.2-1.1-1.5-1.5c-0.4-0.5-0.7-1-0.8-1.6c-0.2-0.6-0.3-1.3-0.3-2.1
		C-248.3,438.3-248.3,437.3-248.3,436.1z M-237.4,434c0-0.8-0.3-1.4-0.8-1.9s-1.2-0.8-1.9-0.8c-0.7,0-1.3,0.3-1.9,0.8
		c-0.5,0.5-0.8,1.2-0.8,1.9v5.6c0,0.8,0.3,1.4,0.8,1.9s1.2,0.8,1.9,0.8c0.7,0,1.3-0.3,1.9-0.8c0.5-0.5,0.8-1.2,0.8-1.9V434z
		 M-237.4,449.1c0-0.8-0.3-1.4-0.8-1.9s-1.2-0.8-1.9-0.8c-0.7,0-1.3,0.3-1.9,0.8c-0.5,0.5-0.8,1.2-0.8,1.9v7.6
		c0,0.8,0.3,1.4,0.8,1.9s1.2,0.8,1.9,0.8c0.7,0,1.3-0.3,1.9-0.8c0.5-0.5,0.8-1.2,0.8-1.9V449.1z"/>
</g>
<g id="XMLID_3_">
	<path id="XMLID_20_" class="st1" d="M-200.7,378.1h5.3l7.1,20.4h0.1l7-20.4h5.3v38.4h-5.5v-23.3h-0.1l-5.5,16.5h-2.7l-5.4-16.5
		h-0.1v23.4h-5.5V378.1z"/>
	<path id="XMLID_19_" class="st1" d="M-165.5,400.3l-7.6-22.2h5.8l4.4,15.3h0.2l4.4-15.3h5.8l-7.6,22.2v16.3h-5.5v-16.3H-165.5z"/>
	<path id="XMLID_14_" class="st1" d="M-186.4,458.8h-11v-5.2l7.9-27.5h5.8l-8.2,27.5h5.5v-11h5.5v11h2.6v5.2h-2.6v5.7h-5.5
		C-186.4,464.5-186.4,458.8-186.4,458.8z"/>
	<path id="XMLID_9_" class="st1" d="M-176,436.1c0-1,0-1.9,0.1-2.7c0.1-0.7,0.2-1.4,0.4-1.9s0.4-1,0.6-1.5c0.3-0.4,0.6-0.9,0.9-1.3
		c0.7-0.9,1.6-1.7,2.7-2.2s2.2-0.8,3.5-0.8s2.4,0.3,3.5,0.8s2,1.3,2.7,2.2c0.4,0.5,0.7,0.9,0.9,1.3c0.3,0.4,0.5,0.9,0.6,1.5
		c0.1,0.6,0.3,1.2,0.4,1.9c0.1,0.7,0.1,1.6,0.1,2.7c0,1.2,0,2.1-0.1,2.9c0,0.8-0.1,1.5-0.3,2.1c-0.2,0.6-0.5,1.2-0.8,1.6
		c-0.4,0.5-0.9,1-1.5,1.5c0.6,0.5,1.2,1,1.5,1.5c0.4,0.5,0.7,1.1,0.8,1.8c0.2,0.7,0.3,1.5,0.3,2.5s0.1,2.2,0.1,3.6
		c0,1.2,0,2.2-0.1,2.9c-0.1,0.8-0.1,1.4-0.2,2c-0.1,0.6-0.3,1.1-0.5,1.5c-0.2,0.4-0.4,0.8-0.7,1.2c-0.6,0.9-1.5,1.7-2.6,2.4
		c-1.1,0.7-2.5,1-4.1,1c-1.6,0-3-0.3-4.1-1c-1.1-0.7-2-1.5-2.6-2.4c-0.3-0.4-0.5-0.8-0.7-1.2c-0.2-0.4-0.4-0.9-0.5-1.5
		c-0.1-0.6-0.2-1.3-0.2-2c-0.1-0.8-0.1-1.8-0.1-2.9c0-1.4,0-2.7,0.1-3.6c0-1,0.1-1.8,0.3-2.5c0.2-0.7,0.5-1.3,0.8-1.8
		c0.4-0.5,0.9-1,1.5-1.5c-0.6-0.5-1.2-1.1-1.5-1.5c-0.4-0.5-0.7-1-0.8-1.6c-0.2-0.6-0.3-1.3-0.3-2.1C-176,438.3-176,437.3-176,436.1
		z M-165.1,434c0-0.8-0.3-1.4-0.8-1.9s-1.2-0.8-1.9-0.8c-0.7,0-1.3,0.3-1.9,0.8c-0.5,0.5-0.8,1.2-0.8,1.9v5.6c0,0.8,0.3,1.4,0.8,1.9
		s1.2,0.8,1.9,0.8c0.7,0,1.3-0.3,1.9-0.8c0.5-0.5,0.8-1.2,0.8-1.9V434z M-165.1,449.1c0-0.8-0.3-1.4-0.8-1.9s-1.2-0.8-1.9-0.8
		c-0.7,0-1.3,0.3-1.9,0.8c-0.5,0.5-0.8,1.2-0.8,1.9v7.6c0,0.8,0.3,1.4,0.8,1.9s1.2,0.8,1.9,0.8c0.7,0,1.3-0.3,1.9-0.8
		c0.5-0.5,0.8-1.2,0.8-1.9V449.1z"/>
</g>
</svg>
